<svg width="160" height="160" viewBox="0 0 160 160" fill="none" xmlns="http://www.w3.org/2000/svg">
<path d="M160 110V80H140.156H120.312V78C120.312 71.9375 122.938 64 127.031 57.7812C128.969 54.8125 134.812 48.9688 137.781 47.0312C144 42.9375 151.938 40.3125 158 40.3125H160V30.1562V20H157.25C154.281 20 148.75 20.8125 144.844 21.8438C130.25 25.5937 117 35.3125 109.062 48.0937C104.656 55.2187 102 62.3437 100.594 70.9375C100.062 74.2812 100 76.7188 100 107.281V140H130H160L160 110Z" fill="#D9D9D9"/>
<path d="M60 110L60 80H40.1562H20.3125V78C20.3125 71.9375 22.9375 64 27.0312 57.7812C28.9687 54.8125 34.8125 48.9688 37.7812 47.0312C44 42.9375 51.9375 40.3125 58 40.3125H60V30.1562V20H57.25C54.2812 20 48.75 20.8125 44.8438 21.8438C30.25 25.5937 17 35.3125 9.0625 48.0937C4.65625 55.2187 2 62.3437 0.59375 70.9375C0.0625 74.2812 0 76.7188 0 107.281V140H30H60V110Z" fill="#D9D9D9"/>
</svg>
